<svg xmlns="http://www.w3.org/2000/svg" version="1.1" xmlns:xlink="http://www.w3.org/1999/xlink" xmlns:svgjs="http://svgjs.dev/svgjs" width="2000" height="1607" viewBox="0 0 2000 1607"><g transform="matrix(1,0,0,1,0,0)"><svg viewBox="0 0 448 360" data-background-color="#14334f" preserveAspectRatio="xMidYMid meet" height="1607" width="2000" xmlns="http://www.w3.org/2000/svg" xmlns:xlink="http://www.w3.org/1999/xlink"><g id="tight-bounds" transform="matrix(1,0,0,1,0,0)"><svg viewBox="0 0 448 360" height="360" width="448"><g><svg></svg></g><g><svg viewBox="0 0 448 360" height="360" width="448"><g><path d="M193.855 44.683c1.378 0 2.494 1.116 2.495 2.494 0 1.378-1.116 2.494-2.495 2.495h-23.846l-17.167 17.167c-0.973 0.973-2.551 0.973-3.53 0-0.973-0.973-0.973-2.551 0-3.529l13.644-13.645h-40.378c-11.518 0-19.151 2.688-23.815 8.113-4.739 5.519-6.66 14.056-6.66 25.63 0 0.069 0 0.137-0.006 0.206l0.212 36.692 14.692-14.692c0.973-0.973 2.551-0.973 3.53 0 0.973 0.973 0.973 2.551 0 3.53l-18.178 18.178c0.206 35.832 0.193 71.358-0.013 107.19 25.486 25.2 50.617 50.312 75.811 75.791h25.38c1.378 0 2.494 1.116 2.495 2.495 0 1.378-1.116 2.494-2.495 2.494h-20.448l25.942 26.241 0.006-0.006c8.188 8.188 15.577 12.859 22.824 13.413 7.146 0.543 14.442-2.956 22.586-11.093l28.555-28.555h-20.722c-1.378 0-2.494-1.116-2.495-2.494 0-1.378 1.116-2.494 2.495-2.495h25.711l16.625-16.625c0.973-0.973 2.551-0.973 3.529 0 0.973 0.973 0.973 2.551 0 3.53l-13.101 13.102h40.377c11.518 0 19.151-2.688 23.815-8.113 4.739-5.519 6.66-14.056 6.66-25.63h0.013l-0.212-36.898-16.014 16.014c-0.973 0.973-2.551 0.973-3.53 0-0.973-0.973-0.973-2.551 0-3.53l19.5-19.5c-0.206-35.832-0.193-71.358 0.013-107.19-25.486-25.2-50.617-50.312-75.811-75.791h-26.147c-1.378 0-2.494-1.116-2.495-2.495 0-1.378 1.116-2.494 2.495-2.494h21.215l-25.824-26.123c-0.044-0.037-0.081-0.075-0.124-0.112-8.188-8.188-15.577-12.859-22.824-13.413-7.146-0.543-14.442 2.956-22.586 11.093l-28.555 28.555h18.858zM122.578 44.683h45.367l32.078-32.078c9.248-9.248 17.81-13.195 26.484-12.534 8.568 0.649 16.956 5.824 25.985 14.854 0.05 0.05 0.094 0.094 0.137 0.143l29.278 29.615h43.508c13.071 0 21.919 3.268 27.594 9.871 5.6 6.517 7.864 16.101 7.864 28.867 0 0.081-0.006 0.156-0.012 0.23l-0.225 39.742 28.43 28.112 0.006-0.006c9.03 9.03 14.206 17.411 14.854 25.985 0.661 8.674-3.293 17.236-12.534 26.484l-30.768 30.768 0.237 41.843h0.012c0 12.765-2.27 22.35-7.864 28.867-5.675 6.604-14.524 9.872-27.594 9.871h-45.366l-32.078 32.078c-9.248 9.248-17.81 13.195-26.484 12.534-8.568-0.649-16.956-5.824-25.985-14.854l0.006-0.006-29.421-29.758h-43.509c-13.071 0-21.919-3.268-27.594-9.872-5.6-6.517-7.864-16.101-7.863-28.866h0.012l0.231-39.972-28.293-27.969c-0.05-0.044-0.1-0.087-0.143-0.137-9.03-9.03-14.206-17.411-14.854-25.985-0.661-8.674 3.293-17.236 12.534-26.484l30.768-30.768-0.237-41.607c-0.006-0.075-0.012-0.156-0.012-0.23 0-12.765 2.27-22.35 7.864-28.867 5.675-6.604 14.524-9.872 27.594-9.871zM87.682 179.997l-0.274-47.724-27.276 27.276c-8.138 8.138-11.636 15.44-11.094 22.587 0.549 7.246 5.226 14.642 13.413 22.823 0.037 0.037 0.081 0.081 0.113 0.125l24.837 24.551 0.281-49.644zM92.303 241.483l-0.2 35.09h0.013c0 11.58 1.921 20.117 6.66 25.63 4.664 5.432 12.297 8.113 23.815 8.113h38.576l-33.55-33.936-35.308-34.903zM325.415 49.672h-38.575l33.549 33.936 35.308 34.902 0.2-34.884c-0.006-0.069-0.006-0.137-0.007-0.205 0-11.58-1.921-20.117-6.66-25.63-4.664-5.432-12.297-8.113-23.815-8.113zM360.599 130.352l-0.281 49.645 0.274 47.724 27.276-27.276c8.138-8.138 11.636-15.44 11.094-22.587-0.549-7.252-5.226-14.642-13.413-22.824l0.006-0.006-24.956-24.669z" fill="#f2fb58" fill-rule="nonzero" stroke="none" stroke-width="1" stroke-linecap="butt" stroke-linejoin="miter" stroke-miterlimit="10" stroke-dasharray="" stroke-dashoffset="0" font-family="none" font-weight="none" font-size="none" text-anchor="none" style="mix-blend-mode: normal" data-fill-palette-color="tertiary"></path></g><g transform="matrix(1,0,0,1,144.95890410958904,90)"><svg viewBox="0 0 158.08219178082192 180" height="180" width="158.08219178082192"><g><svg viewBox="0 0 158.08219178082192 180" height="180" width="158.08219178082192"><g><svg viewBox="0 0 158.08219178082192 180" height="180" width="158.08219178082192"><g id="textblocktransform"><svg viewBox="0 0 158.08219178082192 180" height="180" width="158.08219178082192" id="textblock"><g><svg viewBox="0 0 158.08219178082192 180" height="180" width="158.08219178082192"><g transform="matrix(1,0,0,1,0,0)"><svg width="158.08219178082192" viewBox="-0.95 -32.25 28.849999999999998 32.85" height="180" data-palette-color="#f2f1f3"><g class="wordmark-text-0" data-fill-palette-color="primary" id="text-0"><path d="M7.2 0.6L7.5-1.7Q9.3-2.05 10.1-2.6 10.9-3.15 11.15-4.1 11.4-5.05 11.4-7.1L11.4-7.1 11.4-9.3Q11.4-10.85 11.1-12.03 10.8-13.2 9.95-14.95L9.95-14.95 5.45-24.1Q4.15-26.75 3.6-27.68 3.05-28.6 2.05-29.15 1.05-29.7-0.85-29.85L-0.85-29.85-0.95-30.05-0.65-32Q-0.1-31.95 1.45-31.9 3-31.85 4.85-31.85L4.85-31.85Q6.6-31.85 8.93-32.02 11.25-32.2 11.95-32.25L11.95-32.25 12.1-31.9 11.95-30.15Q9.7-29.95 8.93-29.58 8.15-29.2 8.15-28.35L8.15-28.35Q8.15-27.7 9.4-24.8 10.65-21.9 11.98-19.1 13.3-16.3 13.75-15.45L13.75-15.45 14-15.45 19.7-26.05Q20.5-27.5 20.5-28.55L20.5-28.55Q20.5-29.85 17.35-30.05L17.35-30.05 17.25-30.25 17.55-32.2Q18.15-32.15 20.05-32 21.95-31.85 23.1-31.85L23.1-31.85Q24.3-31.85 25.78-31.93 27.25-32 27.7-32.05L27.7-32.05 27.9-31.7 27.6-29.85Q26-29.55 25.1-29.03 24.2-28.5 23.53-27.53 22.85-26.55 21.55-24.25L21.55-24.25Q21.25-23.65 21.05-23.35L21.05-23.35 16.05-14.55Q15.4-13.4 15.23-11.95 15.05-10.5 14.95-6.7L14.95-6.7 14.95-5.6Q14.9-3.65 15.38-2.93 15.85-2.2 17.15-2.2L17.15-2.2Q17.95-2.2 18.65-2.25 19.35-2.3 19.6-2.35L19.6-2.35 19.7-2.15 19.25 0.15Q18.55 0.1 16.68 0.05 14.8 0 12.9 0L12.9 0Q11.35 0 9.55 0.25 7.75 0.5 7.2 0.6L7.2 0.6Z" fill="#f2f1f3" data-fill-palette-color="primary"></path></g></svg></g></svg></g></svg></g></svg></g></svg></g></svg></g></svg></g><defs></defs></svg><rect width="448" height="360" fill="none" stroke="none" visibility="hidden"></rect></g></svg></g></svg>